# xmcd CD database file
#
# Track frame offsets:
#	150
#	50223
#	90146
#	115675
#	140691
#	190679
#	232627
#	273397
#	307580
#	330489
#
# Disc length: 4451 seconds
#
# Revision: 0
# Processed by: cddbd v1.5.2PL0 Copyright (c) Steve Scherf et al.
# Submitted via: CDex 1.50Beta7
#
DISCID=7411610a
DTITLE=Oscar Peterson - The sound of the Trio
DYEAR=1961
DGENRE=Jazz
TTITLE0=Tricrotism
TTITLE1=On Green Dolphin Street
TTITLE2=Thag's Dance
TTITLE3=Ill Wind
TTITLE4=Kadota's Blues
TTITLE5=Scrapple From The Apple
TTITLE6=Jim
TTITLE7=Band Call
TTITLE8=The Night We Called It A Day
TTITLE9=Billy Boy
EXTD=YEAR: 1961
EXTT0=
EXTT1=
EXTT2=
EXTT3=
EXTT4=
EXTT5=
EXTT6=
EXTT7=
EXTT8=
EXTT9=
PLAYORDER=
